<svg width="36" height="33" viewBox="0 0 36 33" fill="none" xmlns="http://www.w3.org/2000/svg">
<g clip-path="url(#clip0_1044_180)">
<mask id="mask0_1044_180" style="mask-type:luminance" maskUnits="userSpaceOnUse" x="-39" y="-24" width="114" height="81">
<path d="M-38.25 -23.7043H74.25V56.2476H-38.25V-23.7043Z" fill="white"/>
</mask>
<g mask="url(#mask0_1044_180)">
<path d="M9.89807 12.3077C1.93131 18.8543 -2.31151 26.6128 1.13822 30.9282C3.68103 34.109 9.30222 31.9833 15.9217 28.006C16.3025 27.7772 16.7394 27.6283 16.4367 27.2413C16.2324 27.0162 15.9052 27.2749 15.5485 27.4824C10.3877 30.4855 5.87961 31.8936 4.03274 29.6068C1.66766 26.6786 5.08559 19.9206 11.6666 14.5127C18.2478 9.10469 25.4999 7.09447 27.8649 10.0228C29.1766 11.6468 27.7188 14.6266 25.9198 17.723C25.6635 18.1641 25.4115 17.974 25.7545 18.4127L25.9183 18.9541C26.2056 19.3214 26.4682 19.908 26.7042 19.5538C29.7538 14.9774 32.022 9.89095 29.9965 7.3831C26.8605 3.50005 17.8648 5.76117 9.89807 12.3077Z" fill="#FFDAA8"/>
</g>
<mask id="mask1_1044_180" style="mask-type:luminance" maskUnits="userSpaceOnUse" x="-39" y="-24" width="114" height="81">
<path d="M-38.25 -23.7043H74.25V56.2476H-38.25V-23.7043Z" fill="white"/>
</mask>
<g mask="url(#mask1_1044_180)">
<path d="M33.9993 0.345644L26.1262 6.56597C26.0511 6.6252 25.9855 6.69196 25.9276 6.76368C25.4467 6.70821 24.9312 6.69854 24.3857 6.73359L27.2963 4.43406C27.6298 4.17054 27.6881 3.68071 27.426 3.34561C27.1638 3.01037 26.6766 2.95181 26.3431 3.21519L21.2035 7.2758C21.1662 7.30535 21.1328 7.33812 21.1023 7.37278C17.9507 8.33753 14.3035 10.3363 10.7801 13.2209C3.29762 19.3467 -0.409886 26.8504 2.25532 30.1392C4.42972 32.8226 9.95763 31.7413 16.1115 27.9416C16.4653 27.7231 16.6817 27.537 16.4735 27.2419L16.4689 27.2362C16.2756 26.9992 16.0006 27.1418 15.6692 27.3406C10.8758 30.2166 6.26042 30.6293 4.69082 28.6924C2.68093 26.2121 6.06238 20.0994 12.2435 15.0391C18.4246 9.97881 25.0647 7.88719 27.0746 10.3675C28.1893 11.7431 27.6453 14.236 25.8854 17.047C25.6346 17.4476 25.6631 17.964 25.954 18.336C26.1977 18.6475 26.6726 18.6392 26.9013 18.3163C28.6631 15.828 29.6708 13.4832 29.8324 11.545L34.4757 7.87644C34.9006 7.54066 34.9749 6.91652 34.641 6.48942C34.3069 6.06231 33.6859 5.9875 33.261 6.32327L29.5487 9.25622C29.406 8.89049 29.2143 8.55337 28.9691 8.25076C28.8626 8.11927 28.7465 7.99732 28.623 7.88316L35.5896 2.37911C36.1363 1.94716 36.232 1.14425 35.8022 0.59479L35.7745 0.559332C35.3448 0.00986671 34.546 -0.086298 33.9993 0.345644Z" fill="#FCC676"/>
</g>
<mask id="mask2_1044_180" style="mask-type:luminance" maskUnits="userSpaceOnUse" x="-39" y="-24" width="114" height="81">
<path d="M-38.25 -23.7043H74.25V56.2476H-38.25V-23.7043Z" fill="white"/>
</mask>
<g mask="url(#mask2_1044_180)">
<path d="M29.1226 2.99086L30.3218 2.04343C30.6552 1.77991 30.7136 1.29022 30.4516 0.954978C30.1894 0.619874 29.702 0.56118 29.3686 0.824697L28.1695 1.77212C27.8361 2.03551 27.7777 2.52534 28.0397 2.86044C28.3019 3.19568 28.7892 3.25438 29.1226 2.99086Z" fill="#FCC676"/>
</g>
<mask id="mask3_1044_180" style="mask-type:luminance" maskUnits="userSpaceOnUse" x="-39" y="-24" width="114" height="81">
<path d="M-38.25 -23.7043H74.25V56.2476H-38.25V-23.7043Z" fill="white"/>
</mask>
<g mask="url(#mask3_1044_180)">
<path d="M21.9284 15.8407L25.1211 16.3287C25.1825 16.3381 25.2453 16.3254 25.2983 16.2926L28.8286 14.1098C29.0282 13.9864 29.2766 14.1677 29.2216 14.3967L28.0146 18.4143C28.0065 18.4482 28.0052 18.4834 28.0106 18.5179L28.5267 21.7643C28.5958 22.1985 28.2538 22.5886 27.8165 22.5742L24.5006 22.4657C24.4572 22.4642 24.414 22.4737 24.3752 22.4931L20.8897 24.1556C20.6986 24.2598 20.4834 24.0648 20.5666 23.8629L21.9217 20.0661C21.936 20.026 21.9405 19.9831 21.9347 19.9409L21.4468 16.3685C21.3903 16.0746 21.6323 15.8094 21.9284 15.8407Z" fill="#FBAE1F"/>
</g>
</g>
<defs>
<clipPath id="clip0_1044_180">
<rect width="36" height="32.5823" fill="white"/>
</clipPath>
</defs>
</svg>
