<svg width="41" height="42" viewBox="0 0 41 42" fill="none" xmlns="http://www.w3.org/2000/svg">
<g filter="url(#filter0_dd_820_137)">
<path fill-rule="evenodd" clip-rule="evenodd" d="M15.3921 16.7344C18.4757 13.9456 21.7023 12.181 24.289 11.467C27.1136 10.6874 28.0137 11.3872 28.0997 11.4823C28.1857 11.5774 28.7919 12.5431 27.7333 15.2754C27.2471 16.5303 26.4817 17.9189 25.4506 19.3433C24.8716 20.1431 24.9157 21.2541 25.616 21.9502V21.9502C26.4018 22.7312 27.6921 22.6819 28.351 21.791C32.0887 16.7371 33.2837 11.5697 30.9078 8.94267C27.7906 5.49593 19.707 7.72719 12.8525 13.9263C5.99796 20.1255 2.96827 27.945 6.08547 31.3918C8.30925 33.8507 13.0606 33.4198 18.0901 30.7202C19.1693 30.1409 19.317 28.6908 18.4483 27.8274V27.8274C17.8211 27.2039 16.8536 27.0969 16.0694 27.5059C14.8786 28.1271 13.7401 28.5815 12.7043 28.8675C9.87972 29.6471 8.97958 28.9473 8.89357 28.8522C8.80756 28.7571 8.2014 27.7913 9.26002 25.0591C10.2295 22.5569 12.3085 19.5232 15.3921 16.7344Z" fill="#FFC977"/>
<path fill-rule="evenodd" clip-rule="evenodd" d="M13.5411 15.4426C16.9526 12.3574 20.5937 10.2911 23.6668 9.39856C26.8545 8.47274 28.8895 8.92966 29.818 9.95629C30.7464 10.9829 30.9972 13.0534 29.7568 16.1324C29.0171 17.9685 27.8087 19.9758 26.1871 21.9703C25.9264 22.2909 25.9445 22.7582 26.2376 23.0495V23.0495C26.563 23.373 27.096 23.3521 27.3859 22.9965C31.879 17.4847 33.5185 11.6961 30.988 8.89811C27.8664 5.44655 19.5814 7.85279 12.4829 14.2726C5.38445 20.6924 2.1605 28.6947 5.28206 32.1463C7.73619 34.8599 13.3818 33.9528 19.1332 30.3213C19.5555 30.0546 19.6119 29.4654 19.2577 29.1133V29.1133C18.9912 28.8484 18.5758 28.808 18.2579 29.0082C16.287 30.2489 14.353 31.1377 12.6032 31.6459C9.41552 32.5717 7.38058 32.1148 6.4521 31.0881C5.52363 30.0615 5.27283 27.991 6.51326 24.9121C7.7091 21.9438 10.1297 18.5279 13.5411 15.4426Z" fill="#FFDFAF"/>
<path d="M23.4199 17.9986C23.356 17.5914 23.6934 17.2332 24.1038 17.2727L27.1351 17.5644L29.8352 15.4156C30.3099 15.0379 30.9921 15.4821 30.8386 16.069L30.0796 18.9726L30.6194 22.8372C30.6724 23.2168 30.3776 23.5555 29.9944 23.5555L26.751 23.5555L23.6308 25.9209C23.1383 26.2943 22.4582 25.8103 22.6496 25.2226L23.9345 21.2771L23.4199 17.9986Z" fill="#FFA723"/>
<rect x="28.2196" y="4.22632" width="1.597" height="8.38764" rx="0.798498" transform="rotate(45.1793 28.2196 4.22632)" fill="#FFC977"/>
<rect x="35.4565" y="0.664795" width="2.67283" height="12.0922" rx="1.33642" transform="rotate(45.1793 35.4565 0.664795)" fill="#FFC977"/>
<rect x="34.5516" y="6.81006" width="2.16171" height="7.92945" rx="1.08085" transform="rotate(45.1793 34.5516 6.81006)" fill="#FFC977"/>
<rect x="30.7901" y="1.43311" width="1.92514" height="2.98696" rx="0.962571" transform="rotate(45.1793 30.7901 1.43311)" fill="#FFC977"/>
</g>
<defs>
<filter id="filter0_dd_820_137" x="0.0906677" y="1.21826" width="40.6963" height="40.5042" filterUnits="userSpaceOnUse" color-interpolation-filters="sRGB">
<feFlood flood-opacity="0" result="BackgroundImageFix"/>
<feColorMatrix in="SourceAlpha" type="matrix" values="0 0 0 0 0 0 0 0 0 0 0 0 0 0 0 0 0 0 127 0" result="hardAlpha"/>
<feOffset dy="4"/>
<feGaussianBlur stdDeviation="2"/>
<feComposite in2="hardAlpha" operator="out"/>
<feColorMatrix type="matrix" values="0 0 0 0 0 0 0 0 0 0 0 0 0 0 0 0 0 0 0.25 0"/>
<feBlend mode="normal" in2="BackgroundImageFix" result="effect1_dropShadow_820_137"/>
<feColorMatrix in="SourceAlpha" type="matrix" values="0 0 0 0 0 0 0 0 0 0 0 0 0 0 0 0 0 0 127 0" result="hardAlpha"/>
<feOffset dy="4"/>
<feGaussianBlur stdDeviation="2"/>
<feComposite in2="hardAlpha" operator="out"/>
<feColorMatrix type="matrix" values="0 0 0 0 0 0 0 0 0 0 0 0 0 0 0 0 0 0 0.25 0"/>
<feBlend mode="normal" in2="effect1_dropShadow_820_137" result="effect2_dropShadow_820_137"/>
<feBlend mode="normal" in="SourceGraphic" in2="effect2_dropShadow_820_137" result="shape"/>
</filter>
</defs>
</svg>
