<svg width="55" height="55" viewBox="0 0 55 55" fill="none" xmlns="http://www.w3.org/2000/svg">
<path fill-rule="evenodd" clip-rule="evenodd" d="M18.5844 26.4794C23.6554 21.8932 28.9616 18.9912 33.2155 17.8171C37.8605 16.5349 39.3408 17.6858 39.4822 17.8422C39.6236 17.9986 40.6205 19.5867 38.8796 24.0799C38.08 26.1437 36.8215 28.4272 35.1258 30.7695C34.1737 32.0847 34.2462 33.9119 35.3978 35.0565C36.6901 36.341 38.8121 36.2598 39.8955 34.7948C46.0421 26.4836 48.0073 17.986 44.1001 13.6658C38.9739 7.99762 25.6803 11.6669 14.408 21.8615C3.1357 32.056 -1.84664 44.9153 3.27961 50.5835C6.93668 54.6272 14.7504 53.9186 23.0216 49.4789C24.7963 48.5263 25.0392 46.1417 23.6106 44.7217C22.5791 43.6964 20.988 43.5204 19.6985 44.1931C17.7401 45.2147 15.8678 45.962 14.1643 46.4322C9.51928 47.7143 8.03899 46.5635 7.89755 46.4071C7.75611 46.2507 6.75928 44.6625 8.50018 40.1693C10.0945 36.0544 13.5134 31.0656 18.5844 26.4794Z" fill="white"/>
<path fill-rule="evenodd" clip-rule="evenodd" d="M15.5413 24.355C21.1515 19.2813 27.1394 15.8833 32.1931 14.4155C37.4353 12.893 40.7818 13.6444 42.3087 15.3327C43.8356 17.021 44.248 20.4259 42.2081 25.4893C40.9916 28.5088 39.0044 31.81 36.3375 35.09C35.9089 35.6172 35.9387 36.3857 36.4206 36.8648C36.9558 37.3967 37.8322 37.3624 38.309 36.7775C45.6981 27.7133 48.3942 18.1939 44.2328 13.5925C39.0994 7.9164 25.4747 11.8735 13.8012 22.4309C2.12763 32.9883 -3.17417 46.1482 1.95925 51.8243C5.99506 56.2868 15.2792 54.7951 24.7374 48.8231C25.4319 48.3846 25.5245 47.4156 24.942 46.8366C24.5038 46.401 23.8208 46.3346 23.2979 46.6638C20.0568 48.7041 16.8765 50.1656 13.999 51.0013C8.75675 52.5238 5.41027 51.7724 3.88339 50.0841C2.35651 48.3958 1.94407 44.9909 3.98397 39.9276C5.95053 35.0463 9.93119 29.4288 15.5413 24.355Z" fill="white"/>
<path d="M31.7871 28.5576C31.682 27.8879 32.2369 27.2988 32.9117 27.3638L37.8967 27.8435L42.3371 24.3099C43.1177 23.6887 44.2396 24.4192 43.9873 25.3843L42.739 30.1594L43.6267 36.5147C43.7139 37.1389 43.2292 37.696 42.599 37.696L37.2651 37.696L32.134 41.5858C31.324 42.1999 30.2056 41.404 30.5204 40.4375L32.6333 33.949L31.7871 28.5576Z" fill="white"/>
<rect x="39.6802" y="5.90945" width="2.62627" height="13.7935" rx="1.31313" transform="rotate(45.1793 39.6802 5.90945)" fill="white"/>
<rect x="51.5806" y="0.0527039" width="4.39549" height="19.8858" rx="2.19774" transform="rotate(45.1793 51.5806 0.0527039)" fill="white"/>
<rect x="50.0938" y="10.1584" width="3.55494" height="13.04" rx="1.77747" transform="rotate(45.1793 50.0938 10.1584)" fill="white"/>
<rect x="43.9072" y="1.31595" width="3.16591" height="4.91207" rx="1.58295" transform="rotate(45.1793 43.9072 1.31595)" fill="white"/>
</svg>
